General
Complete name                            : E:Jab tak hai jaan 2012 720p bluray MyTorrentsJab tak hai jaan 2012 720p bluray MyTorrents.mp4
Format                                   : MPEG-4
Format profile                           : Base Media / Version 2
Codec ID                                 : mp42
File size                                : 43.5 MiB
Duration                                 : 2mn 29s
Overall bit rate mode                    : Variable
Overall bit rate                         : 2 446 Kbps
Encoded date                             : UTC 2012-10-19 09:33:30
Tagged date                              : UTC 2012-10-19 09:45:32
Writing application                      : HandBrake 0.9.5 2011010300

Video
ID                                       : 1
Format                                   : AVC
Format/Info                              : Advanced Video Codec
Format profile                           : Main@L3.1
Format settings, CABAC                   : Yes
Format settings, ReFrames                : 4 frames
Codec ID                                 : avc1
Codec ID/Info                            : Advanced Video Coding
Duration                                 : 2mn 29s
Bit rate mode                            : Variable
Bit rate                                 : 2 313 Kbps
Width                                    : 1 280 pixels
Height                                   : 544 pixels
Display aspect ratio                     : 2.35:1
Frame rate mode                          : Constant
Frame rate                               : 24.000 fps
Color space                              : YUV
Chroma subsampling                       : 4:2:0
Bit depth                                : 8 bits
Scan type                                : Progressive
Bits/(Pixel*Frame)                       : 0.138
Stream size                              : 40.4 MiB (93%)
Writing library                          : x264 core 112: UTC 2012-10-19 09:33:3
Tagged date                              : UTC 2012-10-19 09:45:32
Color primaries                          : BT.709
Transfer characteristics                 : BT.709
Matrix coefficients                      : BT.709

Audio
ID                                       : 2
Format                                   : AAC
Format/Info                              : Advanced Audio Codec
Format profile                           : LC
Codec ID                                 : 40
Duration                                 : 2mn 29s
Bit rate mode                            : Variable
Bit rate                                 : 166 Kbps
Maximum bit rate                         : 259 Kbps
Channel(s)                               : 2 channels
Channel positions                        : Front: L R
Sampling rate                            : 44.1 KHz
Compression mode                         : Lossy
Delay relative to video                  : 83ms
Stream size                              : 2.96 MiB (7%)
Encoded date                             : UTC 2012-10-19 09:33:30
Tagged date                              : UTC 2012-10-19 09:45:32

SCREEN SHOTS:

PLEASE LIKE US ON FACEBOOK FOR MORE UPLOADS AND TORRENTS

PLEASE COMMENT AND SEED AFTER DOWNLOADING :)